<mxfile host="app.diagrams.net" modified="2023-12-25T06:58:27.611Z" agent="Mozilla/5.0 (Macintosh; Intel Mac OS X 10_15_7) AppleWebKit/537.36 (KHTML, like Gecko) Chrome/120.0.0.0 Safari/537.36" etag="tdRCC-IFhL0PhX0Zzyev" version="22.1.11" type="github">
  <diagram name="第 1 页" id="oofmmc5294LJTVSNWunj">
    <mxGraphModel dx="1313" dy="259" grid="1" gridSize="10" guides="1" tooltips="1" connect="1" arrows="1" fold="1" page="1" pageScale="1" pageWidth="827" pageHeight="1169" math="0" shadow="0">
      <root>
        <mxCell id="0" />
        <mxCell id="1" parent="0" />
        <mxCell id="tymc0VPoWdGVmAMWYBGD-3" style="edgeStyle=orthogonalEdgeStyle;rounded=0;orthogonalLoop=1;jettySize=auto;html=1;" edge="1" parent="1" source="tymc0VPoWdGVmAMWYBGD-1">
          <mxGeometry relative="1" as="geometry">
            <mxPoint x="-700" y="119.99999999999994" as="targetPoint" />
          </mxGeometry>
        </mxCell>
        <mxCell id="tymc0VPoWdGVmAMWYBGD-5" value="不携带任何cookie和ua" style="edgeLabel;html=1;align=center;verticalAlign=middle;resizable=0;points=[];" vertex="1" connectable="0" parent="tymc0VPoWdGVmAMWYBGD-3">
          <mxGeometry x="-0.1894" relative="1" as="geometry">
            <mxPoint as="offset" />
          </mxGeometry>
        </mxCell>
        <mxCell id="tymc0VPoWdGVmAMWYBGD-1" value="https://www.columbia.com/c/womens-insulated-puffer-jackets/" style="rounded=0;whiteSpace=wrap;html=1;" vertex="1" parent="1">
          <mxGeometry x="-810" y="30" width="220" height="60" as="geometry" />
        </mxCell>
        <mxCell id="tymc0VPoWdGVmAMWYBGD-7" style="edgeStyle=orthogonalEdgeStyle;rounded=0;orthogonalLoop=1;jettySize=auto;html=1;" edge="1" parent="1" source="tymc0VPoWdGVmAMWYBGD-6">
          <mxGeometry relative="1" as="geometry">
            <mxPoint x="-702.5" y="220.00000000000006" as="targetPoint" />
          </mxGeometry>
        </mxCell>
        <mxCell id="tymc0VPoWdGVmAMWYBGD-6" value="通过response的location重定向访问" style="shape=parallelogram;perimeter=parallelogramPerimeter;whiteSpace=wrap;html=1;fixedSize=1;" vertex="1" parent="1">
          <mxGeometry x="-810" y="120" width="215" height="60" as="geometry" />
        </mxCell>
        <mxCell id="tymc0VPoWdGVmAMWYBGD-8" value="访问网站获取请求然后根据网站js计算加密算法（第一次访问）" style="rounded=0;whiteSpace=wrap;html=1;" vertex="1" parent="1">
          <mxGeometry x="-810" y="220" width="210" height="60" as="geometry" />
        </mxCell>
        <mxCell id="tymc0VPoWdGVmAMWYBGD-10" value="这个t里面的payload&#xa;我就怀疑是加密算法" style="shape=image;imageAspect=0;aspect=fixed;verticalLabelPosition=bottom;verticalAlign=top;image=data:image/png,iVBORw0KGgoAAAANSUhEUgAAAKgAAADwCAYAAACUli8uAAABQWlDQ1BJQ0MgUHJvZmlsZQAAKJFjYGASSCwoyGFhYGDIzSspCnJ3UoiIjFJgf87AwyDGwMmgyMCSmFxc4BgQ4ANUwgCjUcG3awyMIPqyLsis+YJs164l6DkcMy+ynb3J/xKmehTAlZJanAyk/wBxUnJBUQkDA2MCkK1cXlIAYrcA2SJFQEcB2TNA7HQIew2InQRhHwCrCQlyBrKvANkCyRmJKUD2EyBbJwlJPB2JDbUXBDh83IxMQoxNCTiVdFCSWlECop3zCyqLMtMzShQcgSGUquCZl6yno2BkYGTMwAAKb4jqzzfA4cgoxoEQK9ViYHAAhXk2QiwG6NBNkgwM/J0IMdVyBgbe2QwMhy0KEosS4Q5g/MZSnGZsBGFzb2dgYJ32///ncAYGdk0Ghr/X////vf3//7/LGBiYbzEwHPgGAHrEXHDOHfKHAAAAVmVYSWZNTQAqAAAACAABh2kABAAAAAEAAAAaAAAAAAADkoYABwAAABIAAABEoAIABAAAAAEAAACooAMABAAAAAEAAADwAAAAAEFTQ0lJAAAAU2NyZWVuc2hvdDO4MmoAAAHWaVRYdFhNTDpjb20uYWRvYmUueG1wAAAAAAA8eDp4bXBtZXRhIHhtbG5zOng9ImFkb2JlOm5zOm1ldGEvIiB4OnhtcHRrPSJYTVAgQ29yZSA1LjQuMCI+CiAgIDxyZGY6UkRGIHhtbG5zOnJkZj0iaHR0cDovL3d3dy53My5vcmcvMTk5OS8wMi8yMi1yZGYtc3ludGF4LW5zIyI+CiAgICAgIDxyZGY6RGVzY3JpcHRpb24gcmRmOmFib3V0PSIiCiAgICAgICAgICAgIHhtbG5zOmV4aWY9Imh0dHA6Ly9ucy5hZG9iZS5jb20vZXhpZi8xLjAvIj4KICAgICAgICAgPGV4aWY6UGl4ZWxYRGltZW5zaW9uPjE2ODwvZXhpZjpQaXhlbFhEaW1lbnNpb24+CiAgICAgICAgIDxleGlmOlVzZXJDb21tZW50PlNjcmVlbnNob3Q8L2V4aWY6VXNlckNvbW1lbnQ+CiAgICAgICAgIDxleGlmOlBpeGVsWURpbWVuc2lvbj4yNDA8L2V4aWY6UGl4ZWxZRGltZW5zaW9uPgogICAgICA8L3JkZjpEZXNjcmlwdGlvbj4KICAgPC9yZGY6UkRGPgo8L3g6eG1wbWV0YT4KFBOoRAAAOQ1JREFUeAHtXQd8FNXzHyAkkB5CQkivQAgl9CodEbBLEVEEQRRFrD8QUCk2LKiIqCAoIF35A2IEKdJbQieB9EoCCem9Af83b2/39i53l727Pe4Ib/hc9u1r+3Z2eHW+M43uEgIN9Ouvv0J5eTl4enrCiBEjwM7OTkMuFsU4YFoONNImoKZ9LKudcUAaBxpLy8ZyMQ6YhwNMQM3Dd/ZUiRxgAiqRUSybeThgZZ7HsqfeCw6sX78e3N3d4ZFHHjH4cefPn4eTJ0/Cyy+/DDY2NgbXo14wNzcX/vzzT0hPT6dJn332mXoWei+pBy2NuwHxX+yG008uhVOPfw2VNwo1VmbpkWdf+BGSlv9rcc2sqrkNl+Jz6K/29h1Z2oeC9cEHH0BNTY1R9Tk4OMCXX34J27dvN6oe9cITJ04EFMozZ87oFPx6BbQquwj2t3sXYt7fDHfv3IUmzZoCNFJ/nHnubx2MhmODP4HCcymSGpCx4Tjkn4yXlPdeZvovMg0GTdtCf5HRN2R59A8//ACurq46e8+XF/8Ls787ovN5ISEhMHDgQFi2bJnRws4/KC8vD65duwYPPfQQHDx4EBYsWMAn1bnWO8Rn77lECw06vRhcegXXqcCcEVW3SiD38FWoKSyT1Iye296E5l4ukvLey0x7jiv/g+07lQp9O3sZ9fiYmBg4cOAAzJ07F5o2JR2KFjp79Sa0crXVkqqMnjp1KkyaNAl27twJY8eOVSYYGCouLqYlO3XqVG8NWgW08EIqLXzznwv0eqe6Fvg4xzBvaGzNFS2+kgFNW9iRD99CeFhlVgFU55WCA8nXqHEjqC2thNKEm2Dn70Z7YezF7pBhreWAdmDd0kEoJw5UZORBcXQGoBDaBbpDiz4h0KgJ1+FjXVhnWVI2LVJCpiBNW9jTsDW52vq1FKq6XV4F5Wm59N6xgzdYOTYX0tQDOJXBZwJps1NnP/pccZ7Km4V0eoPvX3E9Hwoik8CavHvLgaHQ2Ea7IIjrUA/jkL7jUAIM7ekHuYUVsOtwIix8tZ96NnpfWFIFJy5eh8qq2+DX2hHC27mDlYIn4gI4t0N68sknxdE0XFZRA0nXuSlaWUU1FJY0gcsJt4R87fxbgHXTJsI9BgYMGAD29vawefNmWQSUr1zKnFajgKLwHOo6j6+HXo8OWCzcP5zwLdgFt6JCdrDTHPB7aRB0XTNdSI/7dCck/7gfHitaQwUCh+Bjgz4Gv6mDIG3NYSGfjbsjDIr8REWg8D/CtY/+oHNeISMJuPQIInk/plHnp/wMeSeUQ/Wl138Tsvq+OAC6rX1VuM87mQAnhisn4N7P9oEem98Q0jFwlwhJ9P82QeK3/6jEhy58BtoteEaIS/3lEG1b0BsjVOayrv3awENHPhL+AwkFJATOX8uG0vJqGNrLDwqKK+GrdZEQm5IH7QJchdLllTUw6YN/4CCZCohp/Ih28PP8h8VRNHz16lV69fDwqJOGveaTb+8Q4m8VVMDAqZuF+3ObJ0Ggl7Nwj4HGjRtDx44d4dSpU4AHj40aGTfHKyuTNuLhszUKaGPyP+iRjB8wHa7O2wrpvx+DYVe/AisHrvdp5uFE0/T9g8KJH731Uz0gbfUh+pFTftoPYUsmCFUlLdtLhbP1E90g7PNnwcbdifbcSd/tEfL02vEO3KmqhawdUXB51jrovuF12othBis71ZWma98QwP9QSPtC3qZX9T83dp6lwukxugt0Xj6ZCuy5l1bCtYXbwbV/W3Ab2kGlSNraI/Q/pGMHH4iZuwVu/RcDOfsuQ6uR4Sr5pNzsPckN7wO7+ZDejBPQfafTVAR0y95YKpyvjesCr40LB1uyDjh3NRvSb3JDpfpzrly5Ah06dNAoSL07eULM9pdokUHTNoOnmwNs+vxRoQr3FpqH/ICAACqgN27coMffQgEDArgrgBQaGlpvaY0CiqWae3NDtpUTJ5TNfVzByr5ZvRXqytByUHuhR8KeCVfUxdHXhSJ3a29D9OxN9L7b2hnQ1JljlvuwDoA/nmzcHGmQv+J/GL69fB7+2sTWhvb2/L2ma8rKgzS6y6pp0MyTm6Ni+EDoe5Cy6r86Atpm9mN01MBCwW+NpAJafDXTIAHdfSQR3FyaQyjpMavJ+yPtPpoIsyZ0pWH8c6ugnIZH9Q8EL3duSjSst5+QLg7gAqS0tBQCAwPF0ULYhnQ+nm729N6uuTU0s1HeC5k0BPz9/WlsSkqKQQJaUFAAGzduhKioKDh06BAMHjyYLr40PEolipvUqUSZ7qbVCOWk2NrVngpVVY6yF+Dnim5DwgThNF1rlDWXXMsE+zatBeHEFId2nmTEaAZlidnKjIoQto8nx06+NFiTX8pHSb4mpBdAYkYhjOofRHo7ABSeRwcEwdmYm5CdpxwGH+kXQOucsuAf+HDFcSLASYDDviaysuL6nNraWk3JBsfx9eladOmqHIf1HTt2UOHE3YVhw4bp3F7i67qnAtpMbQXNL7T4xuCCCMkpXHPvwOeT+4oLnqZOdYc27KErrufVeZyNh3KOhtMhJNyC05f2n06lRa6QRco7Sw/RX0pmEY07GJkuVNe5jTv8+dUT0CHIDX7Yep7MRyOg7ZNrYCdZXKmTk5MT3V5KSKibpp5Xn3vsOZG09cz11eXt7U23lE6fPk2nH/Pnz6fCWl85owSUnyvjilpMONwZQvwwfetAtF7FNSsMSq8CdwkqbxSoFiCVliXn1FnJq2Yy7u5v0hMiFZdVwbHzGfSHq2ykiGNcGr0hf3AR9X/fPAnJf0+Hb98bQhdW8384Bnc0/MfA+ScK6O3b3JSBr8OYa1JSEl3Jt2yp3CExpD5U35wyZQotGhsbW28VxgmoVRM6DOJeJE8orOJ7Pl7KFed/uLIvupwOuM0kJvX/BJiGQzAS3RqiIcP+4JYS9qLienD1j4RbZaYgXD2fupwF/bt4Q9TGScLvwpYXoS3Z6vnneLIwjIv/A7o4NoPJj3eAh/v4Q9atUsgrUu0csK0ooEipqan0qu2Pk70NxCTlQX2nV9XV1RAfHw9dunTRVpVe8bjgQsJ66yOjBBQrdx/WEXAeeX7aKrqFdLTfwvqeqTUd90w7LXuRph8f9hlc33IKbh26CglLI0BTvbiKRor/fBfEfbKD5s8/nUjj+D/Zey7CjV3n6A/jylNvCff8vm7wu6Np9jPPfEfTMv88A1HPfk/jgt8cSa9y/zkUlUarHN7bv07VIxVzzmPnuQXk+98fgVc+2Uf3SE9eyoTvN5+HfadSwd/TiS6w1CuYMIHbFdm2bZt6ksp919BWtCfGE6VNe67B/x2MB74HF2fcs2cPXXjxPZ84zZAwblsh8fNaXXVoXcWrF9K299X+k3FkTzKOCiduI3k81hWcuwdC2q+HyZFoI64axVW9jkakB1Yn3KfEo9QLL/8CUROWC8m+kwcIYT6AG/J4OoTCefXDP2g05mvRO5jPApHjv4dasn3DEwow6hQgBcwYBuE/vgS4j9n999cAz+r5NOyde5PtLMeO3H8CzK98HcV7YSRPfCJ/X8917wluTjeou7J+vsjgHn7w3cZzsI/MUUf0DaCC+Nma07BtXyzNYm9rDWOGtYV3X+jOF1G5+vr60g3133//HWbNmqUVDfH+lF5QSPZe959JE+azmvZBV69eDXjkOWTIEJXnGHqDiySk6OhoKqT8wk5jfahRbyzdrq69Wxxz/W5VbomxVamUr8jMv1t4Ke1udX6pSrypbu7U3r5bEn/jbmnizbt3bt8x1WMMqreGtC01q+huTFLuXQzXR4mJiXd9fHzubtiwob6sOtPPnTtH64mIiNCZT9/E559/ntaLbSRHqVqLM8iHxv+2DSPy8OHDgNpI3bp1M/iFcLGF809U2WvSpO6IZ2jFFRUVVF/g+vXrdDE3c+ZMjVUxAdXIFhZpKRwwepFkKS/C2tEwOWBVdaxvw3wz9lYNggNsiG8Qn1HaS4SFhcH/fo6SllnmXJMfqntSJ+URbIiXwiWWx2wckLwParYWsgfLzoHa2juQkV0OOQVV5DSHKI4720CwrwM0tarbX1VV34Hk6wS5UFQNHq7NwLe1HVFqqZuPb+RdEkjL4hRdfFrZkpW/hj1jPrOEKxNQCUxqaFk+/iWGHKOqajuh0E15IgiCfDhVPHznjJvlsPLPBKiqUQL5MN/MCW2psGriy8mLt8im/3WaNGdKeyr8mvJJjdP+X0FqDSzffceBdv4O8PhAL3h9fBuiAB1C9AHcqBCu3plE9iSxDwQgxxSwbncyje8X7gZvTWwHA7u503sUWk1UXFYDfx0xTFFIU30Yd1/2oHiG3pRo9yPsREy1xRVQSnBKtkS5msc63amqgYKzKVCRngt4tOoQ6gkO7TmslLgs5kMtrOZEYcWaqNkVXUoDxFvZk2e06NtGnLXecE5+Odwk+pyI70GFDoR1OBMlj37hXlTns94KTJxhwkh/lScEeNlDfFoJ5ORXwo3cCvAmQ/Ot/CooKq0BJ/um8ORgTmHGy90L0m6UQSoZwlMySwHLiWnrv2nQzLoJuLewoXnEaYaG70sBjXp2OUVyjsxcQYWOf3nEQSEEo//B+YBKxdW5JRDh9gqfLFxRX6D7OqKx72InxJWl3KI4rHYfPgU3Iy5C4XnurBwz9Ng0E7wnSN+OW7c7GvDsfPoznWHV9kvCM3p1bA0Ry8dAE6IUI5Xu3LlDcUC68ht7woN9JgLxkFAgkXILq+g1hMxNxdQ+0IkKX9J1VQG9klhIhXzy44EE2HdLXMSo8H0poP5TB0H0nM2QeywO3Aa3FxiA2ClU10O0KE9e43qD/8tDwIkofZAzfUhbexQSvtwNcUQDqsOXz/HZhGvsxzuo8ggKOdaVe+Sawdr9qCG0fM4wCA10hcUrT8BRop10iCgia4NrCI0QBebNmwebNnEwGFG0ShBhxnikqQ/hvDIxvQTyi6vhUlwB0UmtIbATR3Cw4wS0eTPuWBPTxZRXxAluCcnPE9a1dW8a7VHDgpyYgHqN7U0FNHPbaUFAcTguIUN0CMEL8VpSOMz33DqL5yPYtHKC0AVPUwHVZcABQXk83olX6RMq0SPw5nPd4PnR3H+gGWO7UAGNTcvTS0CHDh0KrVqpTmXUmyAFvqteppAI3tq/koXoQG97mPJkkHDfqgWna4vDeXnlbQLUawIVpJe9ksBp/BeXKRdZu8iiCIV0/MMc/EWoRIbAfdmD2ga40V4uY+Nx6PTdCxSTjjqcSN7je6uwBYfq5BX76XxSrDXPw0tUMpMbVNXjhVM9Td/7AV25uRuWCwviNNELirkeSGpdw4cPB/zJTa5O1vDq2BDIJVtN52PzyVZSKXy3IZYuhlBz0K65FfTs4AqR0Xmw4KfLgAKMwsqTlWL7COekUTF5dAHlSrar5Kb7UkCRCYh/vzB9NeQQeIjHqHCqf4rAN+euAQKPUDn5ULf5VPO+1SOdwWtsL2hCkIwx87YAIkg1kfuIzpqiDYoTQ3j5PUZNEA1dlWdmZgIiInVR+/btKXZdVx71NCuy5xlEhA5/vTq6woqt8VQAU7OUc8sxw3zB2cGaLPLyIZPsmwaTLahu7V1h855UcHG0plVi74nkSOaupy/n0jA/DcByPh52dOpAEwz4c98KqCfB1qOAZm49DTZkKEfIRthn41VYEEsUmZH67P6fgJvHeeilN9Zq7SVRgC2Jli9fXu8cFBV/HR05KLahbe8Y4kwFNDa1WFidY086vLcH/fH1Hj2fQ4N8b8nvke7WsL20//RNApNGSLXhbbtvBRTnl2jcARdGjZtzE3ucm4qpMquQ3oq14nP2XRFnsfgw2kRCiK4usrWVfs6Np0gIDeCHaL7ec1fzaRB7TG1UQeaih6KySW/dCMLbuNBsr4wJJkbFlBv5GLlpTxoxKlFGdjGCtW7oa3uGevx9K6D4Ij4T+1MMUSoxroBzR/V9UbTnhJiki6+uoYYW0Gzk5TfXqfPAou9x+MafXJRGTodWbU+ELm1dwJP0buUVtcQ2UyExDlEFOOx3CFZCqnG7KDGjlA7tZSTfKTKEl5bXwqDurcDGmjvjcVSs+sXt49NwGsDvCojT9Qnf1wKKc0+efCcN4IPCNeSdUQTQVwTp645C5h/cIip00RgqtGKDEViAx0vhsGYsKeuqW5kc9RvTPnuy+MHfOTI/PHdNWZObiw1MeMQfHGyVImFNjjWjyf4m/pCw5xzRtzUM6+WhLKghxL9j3bfXkLmeqAdC3Q4NkqFFPPsQD8EqXz18aZDJYnU7PIvHk6La2rvQgqzocdWuiSqJMgmu9G3ICVFLIsSGCp2h6naaW6WppfdxHFowQZOJjJQcsG1mRfY26//8eHSJR5/mIqYsYi7Os+dK4gATUElsYpnMxYFGlUf7cPpV5moBey7jgA4OPBCLJB3vz5IsnAP1z5It/AVY8/TnAJ7+XEgohcSsCigjm+8BHs3goY7O0NxGOePD+JhU5dm7+lM8W9qAN/mpExo6OxtXAnfJv/BgB7C2MnTdz9XMBFSdww/AfadpUZBfotRGwle2I9pKG+aFQv8OTpQD0Sll8Oh87adurz7mCR9PCajDrTV7bsDc1ck0PnJFNwhozWlF1ckoMYIJqERGNaRsQ7q4kN7NHrqQH/Z4u07mwi8RN+DZj69C8sbetNcL8baFH99sU+e1l2xJh/TsSnisD2cATJwhu6AaPvwtRRxldJgJqNEs1F4BQj/QenI+sSCHNug7BBtn/FX7k/RL+ektVcHrFeoIhy8WQkJmBVxNK4PwIHto4WAFYwe6qVSMw/6sHxKgpVNT6NmurgLIG8sTwNG2CQR72UJkrNK0u0olet4wAdWTYVKzr95xGf737WGV7Ggy8Yf3iW12svktle4J5IP0osXlnPqhp6t2ZZGth3OIsdu7MHVk6zrN//t0HhwiQr7+/VBY88+NOumGRjABNZRzOsodIG5kUDi7h3nAey/0ICcxDrBm5xX4bdcVaE/gH28/r9mup6YqTQX5wN7w6OUiyMiphJ0ncgGH5+HdXMDdWbuArvqbE7znh6lq+GNdM79PgN7tHWFkzxZMQDV9SEuK+/zX07Q5qz4YQXQruUXHV28Pgn+JT6Sf/rigl4CaCvKRcasKJi1Raov0DXOCjfO0a03hij6JrPpxaPdooSrE89ak0N2A5TNDZP8MrAeVmaXE7i2BUGTTWp9+d6dK7QhBRkKPcmhrXgqZCvKBW0s7F3eA5BuV8OfRW3AypggGv3sR/lsajp4g69AqsohCenm06vAeRbaUNh3Mhtef8AJ/UqfcxARUZo6WlHEoyGAfZ5j6VCeNteszBzUV5AMthPQjW0r4e2F4Kxg97wpd2EReK6ZDtbjhuG+6jcw/scyoXqqr9/lruC0l7FXX7btJi6WQVT7StiM50DXEgU4daIQBf5iAipiGVn/Lyzmvbs7OzgZZFHZ2sAG0Ie9IXDK+Okapryp6jF7BewX5wG0jXHkfvFBQR0B3HM+li6Pxg93rbLyXVnCLK03bS19vy4COAXZMQPX64joyr1y5Er755huaA931BQUpYbg6itVJ6t2pNeBCCZ1y8XNQPlMVcdSLHuWkktyQD+wNcQRHZWQxbTmUQ2+9NJwO/bw7i6ZpWr3vINOEiipVyMer38XDufgS+HNhGIT6Gqeqx3pQ8VeSKbxgej8qoI/O2g7zpvamQpqZUwrouAu10n9bNFLyk+SGfOAx5JhFMfB0fzfoGGgHecU1sPtUHl0A4RA+Wm0ITyR7o7hAwmNN7A3VqZWL6oIJ0+0VRh983Zrp3BVQr0vTPRNQEVcyMjLoHfpGd3d3F6XoF8QN+b0rxsLMJfvJ74BQGJ3G/u/FnsK9OQKuZJPd1bEpnR9uO6JsQZBnc3py5ObMARD5FH5eOU1tccSna7oq3CAJbns05ZEax7SZRJxCT2roLXj27NmgzeuEKLukIJ4iZZHes4VTM4JwtKM9qKSCJs6EZ/E3iYGwyuq74N/KBloQobVEYgKq+CroNnDAgAHUH2VkZCS9WuIHe9DaxIZ4xRfPz8+HUaNGwcMPP8yE04L+F7Ae1II+BmtKXQ6o7jXUTWcxjANm5QATULOynz28Pg4wAa2PQyzdrBxgiySzst88D5eCScKW4SZ9fonSkjLfWg+yOe/bSlUxBDf8T0QXQVZeNXi72RCMkxM42RkvXmyRxHP9Abq2ffFMvZgkZMczC6Opzqg6a57q3xJWvdNWiN5/roCq7qEyM09oPe/3uaEwrCtnBY+P1/dqvIjr+0SW3+wckIJJEjdSHZuEp048Ee1CePvHRKpM8tUrQTCoszPsicyHj9amwOQvYiF9Sx+N6nt8+fquTEDr45CB6agUEpeaDx4t7QiGpzlEJ+XCVfIL9HYmprVVdSoNfITBxaRgksSVq2OTxGlRRAMKtfHD/O1g8gjO6t2Mxz1hNUF3IrgumSg5B3spBVpcVkqYCagULhmQJ/1GMQycupmeve87lQqX4jltIaxq9UePwDPD2kiq1RIwSYWltVRj3tOVWLdTU2Zu48NpK5Ur3NjwL4WOF3CY93G34aMMujIBNYht0gt9tS6S2IBvDbu+expQWeTExUzii0j6R7METFLIpDPCC48Z4AZfTg8idkQ5lUEXeysKQUaNqPd+ToJB4c4QQQB0uUU1gHlRQ8oYYgJqDPcklt3w6aPEZyU3zCH8WB8yJyYJDd0OJYucTkQt71JSGfxHlJkRHpKeUwURn3UUXuOHN0IodAQ1n3jtp8FEUJeTeGOJreKN5aCW8gnpBdDz+d8psnP/T+O05DJfNG41oW6oGJOE80htmCRsKQ71oVMi6YJoz5JO0L2NAzX80GvmOUgh2CYUyoFkkbQ3Kh9OXy2m99s+CjPqJVkPahT76i88tKdf/Zl05LAETBLfPGcynI/u7Qq7CEwZTeOggF5ILBWEkxdGBNANIQA8xMkjElS86ufrknplAirilByYJFF1NNiMWHc2hiwBkyRuP9pwQuL3PPdG5dF79f3Oh7u3gCtEiP89mw+vPe5F8xjyxzjuGfJECy4jFyZJzlc0FyYJ4dNot0nsrgaFcjuZgyLx8A/Uzkf6j/SW0x/1pGH8c/gS53jBSeSUQUjUI8AEVA9mmSOruTBJ2Ps9SqDIiORE4Nu19HIqnDh3RaNjaM8JaVRPV1i4LhUOni+AKV/FwnCyqMKNegTNoXBjT2oMMQEVcU8uTJKoyjr7huI0c4SlYpIcmnND+XoF1p1vK4Lqls4I4m/pPudGYrZxBkFy/k22mvCHhDaeVr7dFtQxTkJBiQG2ihcxyhSYJFH1FhWUiklCEzmoCGJF0Ki42BEbuRW/EE4HsvKq4EZ+NSB0ubWaeRxxXn3CTEAV3GKYJH3E5t7lZUO8gtcMk3TvhE6fJ7EeVB9usbz3nAPGHZTe8+ayBz5oHGAC+qB98fvsfZmA3mcf7EFrLlskPWhfXMP74iZ8CfEDj9tI/MmQOBsqgpwlG+9eLa2hGzl/16ZCl0G0nDDfrcJqWhfiktSt6InrlRJmAiqFSw04z7W0chjw9gX6hl9MD4SXHlFq++PeJtqeR0O0PKEXj31fdlZRAEHYx5xVSbD2X86ALZ/3uaGtYNnrwfytQVcmoAaxrWEUQsGa+nWs1pdBp1wonJ2JW5rPpwVS9TzEGj3xYTREr+khlPt0QxoVzhAC7fjwBX+K6ryQUAJYv7HEBNRYDmopX1hSRW3V38wto8rKqKjs4+GgJbd5olf9nUV9I40b6K7SS/KtWRXBGa7dND+U2vlsTY4vUUARg3SGmArH83g8m19J6sGe9eDX4cJJE69Mwtdl6JUJqKGc01EOrSuPnb2rTo7Zk3vCnMm99DLBaCpMEuLXF61PpUO6nweBoIhshWLDi8pqqZ4nujLkXdPgeTtP+84WUAE9fqWICukbT/lQ4bxVWAP25Bxf25EoX17qlQmoVE7pka8x0eJ5fXwXQMddfq0dISmjEL5aHwlfro2Eru1awYi+AZJrMxUm6fVl8XSx8+ELfrB+v+rcERuXXcAZbAhWQIzRlxJqyU8kPpI2HsgmtkU5ZxHXc6vou+B8tcPUKNq7YgT2oGtnt6tj4IFm1uMPE1A9mCU165AevoA/ntCh17vEoReiO9FFjT4CagpMEmrEHydWQBAzhL2dJsohK3EkF/umZIV/G95akUh9JKHyMRXQAk4wrxNlEqSlf2RQ94mznvKGfURJGdX1cK56bmV3hounHLKgP9ib/HM8Cbb8G0sdKaBfpJpazhsGzk31Ibn9JKGwvUmEDfFHzxJdT22E2ktINbfvwPxfk7m55jttgPfqYdWE20LnYci49XT1t57QhJTDXvmhNy9AbEY5NYeD202GEutBDeWcjnIrtp2HD1ccB083e0BMUvsgVygtr4FPV58igqrqEUNHNTRJbkzSil2ZFOOO+5k8AvNENOf49eilImhKBA/9JvHOEVARGf14LnyRrM6JGh0O80i8tzk+H6I/UTh5wnsU0DjyYwLKc8XIq1yYpJ+2XaS+kk6umyhg4HF4N4TkxiQVkw15JHVFZIyLOJNHfyig7i4clAOFEzfwZyhwRdHE4wcS73SW1/tsaqUUTky3bqp6j3GGEOtBRVyTA5N0h2z+ocvDsKCWgnDiI/YSP52GkNyYpNnjfWH6aCV2CNuEG+zYs743zgcmKIZ9BMfh/uelpFKYO8FXmEciLh7piX6ca/GHOjrT+wPEgJiY+HtjEJ1YHxNQMVdlCKMfpP5dvOH4het0SH+oqw+cvpxFPR0bUr3cmCSEDuNPTHxvifAMsVnFN570gmlL4+D91cmQR8wwnosrpVgjXKG3U5i8QQsjKKy48Or7xnmYOqo17DnDLZJw+DdmeMc2qrZU3OoHMCwXJumbdwfDJ7+cgq/XR9EfukZE511TFuyxOIwSfuZG1PccqMwhMR4FD7eREBQ3Z1UyRtHF1fZFHWiY//PjrBDqbQ5X7+//wuVDQUeskhgVyufX58oUlkXckhuThCv2/OIKCPB0tkjBFL26ziDCjVGhxIucJOnyp4QuEeOulwMauOUXUTorlpDIBFTBJIZJkiAtZsjChngF0xkmyQzSJ+GRrAeVwCSWxXwcYBr15uM9e7IEDjABlcAklsV8HGACaj7esydL4ABbJElgUkPPIhcmCbej8Owd9z7bKjbyjeUdE1BjOXifl5cDk4T7n3hc+vW2dKpYgppN17f2kYUzbIiXhY33ZyX6YJL++bwTLJ4cQAUQ9TzFFD49ikJBqmpkACGJKyZhJqBqDJHzFu3U/3UkEf4+mgSpWUVyVi1LXWJMkqYKxZikHm0d4LG+nAMIHpPEl3EiZ/sfTwmApA29gLfAzKcZe2VDvLEc1FAerRN/9ONx+HEbB+fls7w/pRfMIT99yNIxSfgukSu66fNKeuVlPahe7JKWOeJYEhXOh/v4w8Wtk+Hc5knQp5MnLPntDBw5lyGtEkUuxCQFBATo/JWUlOhVJ2YWY5I0FdaFScL8PCZJU1k541gPKic3FXWt3cXN0Zb9byh1hYjRy2YPpW5p1v0VDQO7+Uh+qqVjkiS/iIEZmYAayDhdxeLS8iHYx1kQTswb4utCteyTM/Wbi1o6JkkXH+RIYwIqBxfV6kCNeoQXqxN6m8u6pd9wbOmYJPV3lPueCaiIo3Jhkvw9neBmHofd4atHpCeu5BGCrA9ZOiZJn3cxJC8TUBHX5MAkYXUdglvSraVrKXnA++aMjL5BnxTqz23ViB6rM2jpmCSdjZchkQmoDExUr2Lm+K5UQCd9EAGLZvSnUON5y4/SbK+ODVfPrvPe0jFJ2HiEIvNgujLihhsJPR8jjRvkRg0+0BsD/jABFTFNLkwSut9e+cHD8Mon+2DivL/pExCXtOHT0dA+UL8eVNQ8kwWNxSRdJMhPHmPPN5K/b0ecgPVsxzn94tP0uTKFZRG35MYk4YY9zjsbE/MbaKMJEZ/3I0nFJJni3ZiAKrjKMEmmEC/j62RDvIKHDJNkvDCZogbWg5qCq6xO2TjAzuJlYyWryBQcYAJqCq6yOmXjABNQ2VjJKjIFB9giyRRctfA60fHBhYRSSMyqoLZCAzyaESNfzjrtyidkVkBV9R1oQ7BG1mqmFvF10eY9OlbIJ0bGugQ7QKdAO6PtMmG9bJGEXHjAqO2LZ4ggcXZC+VdHTfgNxNhX/w5Ka8ioP4A2Qz8hbmaSiDAjHVvWRbBsx5dFW6PvKk6O+Di0gLfr446A1u+MIdaDGsO9+7TskC4uEB5sT3o6e0Ah3HUyF36JuAHPfnwVkjf2FnrIV76Ngx3Hc+lbIhAOe151Qu9yKJyYPn+iH/X8gfbq0dLdbOLc66e32qgX0euezUH1Ypd+mfHjxxKFkV2HE+H/DsbD1eQ8/SowUW4Umlce9aRHkOjr6LOpgYBOuFAAr6YptbAQVDeN2PuM+bUHDA7nDNWqN+mfSO6dnhngRqwwe0LXEHtYN6cdHd7RMwgiPo0h1oMawz0dZbOJut2sLw9Szx7ibG9N7A4LXukrjtIZNhUmSfxQ/I+Epr6ReNPeGF79blu8UEJh1UToxxNpYCfl1ABx8Xj+fjKmCGKIwHcn9vANJSaghnKunnIzvzgA6NBr7ku9YeKoUGIctjH8F5UOCen59ZRUTTaVnyTUOjp6uQgycioBezpEag7v5iI47VJthfY7RztujpmhcEfD50zP5gQXHXsZQ0xAjeGelrLoCwmFE7Xq0bscT8+NDOWDkq+mwCThw1GgJi25JrSjb5gTsYjcXriXGugUaE+z7j6VB6894UW8hDSi0wTewRfvb0lqfer5mICqc0SG+/hUrpcc1T/Q6NrkxiTxDcKtpZ2LO0AyGaJRlxOH48HvXoT/loYLDhP4vLquo3q5Uvc06Gwh5IUz0N7PFqLilLAWXDwZQ0xAjeGelrLZ+eU0Bf0jGUtyY5L49qDg9CNbSvhDtzOj512ByNhiiCR7mb3bS9ffRA3CQ9+Ew1ziaOEY8duJ21FjyILJj9iox9W8txvxA2oEMQEVMU8uTJJPK25RgN49RvYzrheVG5Mkel2V4GN9XKmAHrxQoJeAYiXoNUR9O2nc4hhaPwqqMcQEVMQ9uTBJHUPcaK1/HUkiK/Z+KorKZRU1YNecc5IlerTWoNyYJNxKQrVpa7Whd8uhHNoGL+JNzlhCP52HLhZSjyA+rAc1lp3yl0cM/JQnOlLfSBPm7oaXSBhX8YfOpkN5ZQ18+94QyQ+VG5N0lswPxyyKgaf7u0FHchyZV1wDuMDBoRmH/dFkTskTLnC+3MJZQjmfwM0rl2xKh5ZOTel+53NDOWg1uul2srMChHfEEy8fv+3lvCcvmOTPV2XwlfWgItbJhUnCKj+fNQDcW9jCF8TcjdgNoj7CKWqabEFXIlyujk1h25Ec8lNWix7hfnyzDaAzL57yimvrYI3w6BPpeq4L8AKK92v2cKhVDDuS481fyB6qts19zCOV2Fm8iFNyY5Kw6lriLTj9ZjHUEieyvh6O0MzGMvoEPIu/mV8FldV3wb+VjU7/RyIWaQ3iPipuXaHDWbl8JOHDmIAqWM4wSVplz6wJlvHf2aws4B7OMEkW8BE0NIH1oBqYwqIshwPGbfNbznuwljRQDjABbaAftqG8FpuDNpQvqcd7GAL5wOp1uathkA89PgDLqpsDUiEf4lp0uasxJeSDDfHir/CAhBHy8clLARDxWUf4+9OO8PLo1hQ8h5CP6tq6msmorDz161iN3BFDPtBNzb9fdIaHu7cAPO5EyIexxATUWA5qKH+roILCO2rI5jxPuGGPkI8chaYTH2+Oq1TIB982Xe5qTA35YALKfwUZr2v/ugL9Jm+EzBylXmQuEVqM++mPi3o9CSEft2/f1vnTq0INmbVBPjArzi0XrU+Flx5pDWEBtnVK64J8oFU8hHwYQ2yRZAz37kFZc0M+xO5q1u/nlEDEr80gH2JuPIBhc0I+dhGs0vHoIlj+RgjYN9eMb2eQjwdQKMWvbC7IRwlBeb65IpHqdD472F3cJJUwg3yosOPBuzEX5GPFrky6su9GIMO8Oe8T0cX0Axy9VETAcY0pVIRBPu6hTMoF+bAiHw+pokppXibpeqFBb2IuyEdxOdd23ONUJ9QJxR9imZAY5EOdQya6lwvy4UocdiGdv5YtuKE5duG6Qa02F+Rj9nhfmD7aU6XN6BMee9b3xvnABB3DPoN8qLDN8m54L3Nfr4+C6prbgK4RV/55yaCGmgvygb0i/sTk7sJp26PWva8IDMcgH2IumTAsF+QDHXm9Pr4LrNh6Ad5Zeoj66Px+zlCY9cVBIA4/zEr6QD7UG6rNXQ3mY5APdW6Z4F5uyAeeKOUXVUAwAdE1sTAXNAzyYQIBMmWVDPJhSu4aXrfqJMPweu77kgzyYZmfkEE+LPO7sFYpOMCURZgoWDQHmIBa9OdhjWMCymTAojnAFkkm/jwVlbVw5FwGRBxPgtzCChjQ1Qdm6Okz3sRN1Ik1wmejzufZ+BLwamkNeDavyeanqTBJTEBN/PU//uUkVVIOC2oJaFSsqZVlDVq6sEaoyDzz+wRqx4lnE9pd2vdlZ0BbTjwxTBLPifvsih/4zwNxMKy3Hxz/7Tn4bdFImPZUJ4t5C11YI2wkng6hkbHOQfbwz+edADFH6GzhiQ+jhXdgmCSBFfdPAHFHlxNuUXOLeJrk5mxL7zEu46YSBmLuN9KFNcK2rYrIok3cND8UerR1gMf6cqYZ0VAYepVDMjUmiQ3xlM3y/lm3Oxo+W3NaqHTz3muAPyR0pLBi7nAhrb6AqdzQiLFGfh7EaK3IFCO2qaisls49A1o3Ezx/oFIIT/vOFlCnXbowScwNDc8tC7u+OiacuJ5pDzeJr6Sh07fCVDKsv/N8d9pK22ZK+5tSmm0qTFJ9WKPsAs59TLBiromuak5fLYaJw1rBxgPZxHRjNW0+wyRJ+YoWlsfBzhrw11ihuuRkbwOebpy7Fn2bagpMkhSsEe8+xsW+KSD84y0C/0DnXK897sUJaEEVfRWGSdL3izaw/HJjkqRijawU2lc1BM8//9dk6iZx5TttoLSC80jHowYYJqmBCZy+ryM3Jkkq1qiVizVt6sHzBXTlvvBFf2o9GYd5JN6KMsMkUXbcmz9yYZLkbK3cmCSpWCNeex63lXDPcwYZ2pGiUzlDDGKfngyTJOcX11GXXJgkHY/QO0luTJJUrBH6j8f9T/QgN3eCr+B9Dr3SIT3Rr6XWd2GYJK2saXgJcmOS9MEavfGkF0xbGgfvEy9yeSU1cC6uFM6RI8+OAXbQzkdpBodhku6R3MmFSeKby+OPLAztwTdPuGrDGmEviU5hF65LhTmrkmn+MH872L6og1CWDzBMEs8JE17lxiSZsKn3tGo0AobGa71crbW6q2FuaEz8SRgmycQMNrB6dtSpYBzDJBkoQSYuxjBJJmYwq944DliWcqJx78JKN0AOMAFtgB+1Ib0SE9CG9DUb4LuwRVID/Kj1vZI+fpJiyNEmngwVE/1QPPLs39FJIyYJn4nbUXEZ5WDVpBG0FW3k19ceXelskaSLOw00TYqfJBS28OlnAfc3xYSYpC0fhEGPdg5CdEXVHUDTjF9vS6eKJQiqu761j5BuTIAJqDHcu0/L4tFkeLA9dCE/xE3tOpkLv0TcoD1j8sbeYG3ViPpL8hp3Ep4b2gpG92oBtuRsfsP+bNh+7BbgOX38up5gTQQRiRd4FEzsneUUUDbEm1DIqqpvQ2TMDcjMLgGPlvbQI8wD7Jrrp1FviuahnyQx9Qp1hMMXCyEhk/h3Im5jwomSCAppwvpeKjZC+3dwgiOXCyG3qIZoNZVD1xBOCduJ2BF9e4wPTHnEgwhrJB3qxfUbE2YCagz3dJRd+PMJWLbpnEoON5fmEL/rZZW4+m5MhUkSPxd7UVSrQ1JXoxPnw3CYnx0V0tsICVVQ5IpufFD2KxNQ2VlKnK6m5FHh7N/FG5a+Mwhak94zIaMAdh/R3zWgqTBJZZW34ejlIsjIqQTEG+Fcc3g3FwEgp4ktBaW1cJqgOXERhFOEe0FMQE3AZYQaIw3o6g1t/FrQMJoF502D0wiJf0yBScJHZ9yqgklLOKQp3vcNc4KN89pjUCuhEQecYy55OZB4+bg3pqLZIknr5zA8oYrYpQ9+7BcoLa+mMON+4d4wpIcvmYfaGV6pzCVR0M7GlUAyMWuDSsgIEUZVuv+WhgvKyeJHLv0jA5ZsToeBnZzhz4Vh4iSVsP9zp+kclK3iVdhieTc4zP+47QJsiLgqNO6tid1hwSt9hXspAbkxSdqeOXreFYiMLYbdn3SE3u0dVbL9Tlbv7/yUCKF+trCfmL3RZJuJL8AElOeECa6mwCRhb3rwTBos+Ok4JGYUwoUtL4K/p5Pk1r///vuwadMmnfmjo6PB0VFVqHQW0JD48+4s+PC3FHjrGW+YP9FPyPEX2YKa+nUcBcwd/jYcnOx0zwrlFlDdTxOa+WAE5MIk4aqY16a3adoERvUPhJTMIvhgxTGITszVS0DlxiTh0I6zR34Pk/+yWw7l0KBXS2JlREH/XSigwokIz/1fda5XOPlycl6ZgMrJTUVdO/6Lh9/+ioZnR7SDQG9n0nMW0OEekzu30e73UlNT5MYk4bxzzKIYeLq/G3QMtIO84hrYfSoPkrIq6NA9uhdnfymfxI//mJuetCdD+2eb0lSahxv43YkpRiSEIvNgOtwdQHrvZ27HYtwgN2rwgUYa8IcJqIhpcmGSWrnaQVxqHsxcckCofWhPP7LlNBh8PJRHhELiPQxI9ZNUXn1HaNUhsomvTl2CHQQBvUiQn7w/Tz4ff9/O19YoAWWreJ6j5Co3Julmbhk1Whvg5WQRJ0iiVwW5/SSJ65YzzARUwU2GSZJTrOSriw3xCl4yTJJ8QiVnTawHlZObrC7ZOcA06mVnKatQTg4wAZWTm6wu2TnABFR2lrIK5eQAWyTJyU1FXf93MB7+IN49ls0eCu4uSiNbJniUQVXiadKFhFJIJJvzuLEe4NEMHuroDM1t6vZXUjBJqIaHRsXSsivpCVqorx30JkrQ/GmaQY1UFGICagz3tJRNul4Ie0+kQHkFsfPuoiWTGaM7TYui+6DiJiCMY8O8UECteSSpmCR0Q9P11bPiqmgYnS+g4glvCLdOBokRTEAlMqohZRvSxUUjJulZcrTJY5JQYR6VmDVhksYujhEwSTbWjQDNgI8iuCVEcmYT5wrovgaVoV/9Nh52LK5rCU8fXjIB1YdbBuRNzSqC89eywdmxGfQL9yLn3U0MqEXeInJiktydrWHdnHbKBgYBVdcLfuEM1b5XJhgWYgJqGN8klfrpj4uwavslIW+vjq0hYvkYaKKHwdD7AZMkvKAiUKJwtODqaDxAkAmoOndlvN+05xosnzMMQgNdYfHKE3D0/HU4FJlOXSNKfcz9gklCQ7dXkssAFUe2KVT3Xh7dWupras3HBFQra4xPePO5bvD8aA7nM2NsFyqgsWl5egno/YJJijidBx/8miIw7ZVHPeHNp72Fe0MDTEAN5ZyEcgia4wm9HSMVFHMOsPj4+q5y+0nin4dbSzvJAkaMSRr87kWdmKR9Z/MpJmnqyLo945PEXDhimqJiS2DzoWxY+XcWNCa7VuiA1hhiAmoM9+op695CuQfKu+G+I8KT11OcJpsKk4S4on5kSwl/Lwwn1kMUmKRIAivWhElCwBxikjYSx7KaCLeT8IfbVK894QlBz5+h1ko+IPARde19TeW1xTEBFXHGFJgkUfUGBeX2k6StEY/1caWguYME5iEWUMQkIWDOm0BBcF9TF2COrxvz9A1zBFR0PkN61IeIwTFDiQmoiHNyYZJEVRodtHRMEnpFVgfS4enUsStF9N3dnI1byTMBNVqETFuBpWOSftiZCev33YRnBrhR84xX08rh71O59CQqxKu5ij8lQzjFBFTENbkwSY0Uh9D8VfQIWc6nxfXpG5YbkxRMhLCq5i6db4rb8nD3FvDta2TX3khiCssiBsqNSRJVbXFBuTFJN8gRJx6Nokkcf7JDgGf7chATUAUXGSZJDnGSvw42xCt4yjBJ8guXHDWyHlQOLrI6TMaBuhqqJnsUq5hxQH8OMAHVn2esxD3kABPQe8hs9ij9OcAWSfrzzKASmTkl8N63h4lB2/bw2ADj9wcNaoSikD6YJPFz0CV3STnnL0ld1xONkJ2ILoKsvGrwdrOhx5vqJ0ziuqSGmYBK5ZSR+coIPglxSn07exlZk/HFpWCS1J9yjZwQDXj7Ao3+YnogvPSIUqNp/7kCak4ccUw8oR373+eGwrCuxoGymIDyHH2ArlIwSWJ2oALW1K9jxVFCGNPe/jGRHm1+9UoQDOrsDHsi8+GjtSkw+YtYSN/SR6NJcaGCegJMQOthkKHJ6KblYlwOJBHboO0CXInfIcuZ7kvBJInfexXR7UQfSuMGusO2I5yhWz49ipgNxxMk1AWdPMKDRs943BNW77kB6QSGnEygzXgcaigxATWUczrKVVTWwkuL9tAhnc8mVl7m46RczYlJwvbhnHLR+lQ6pPt5EOvLR1Rb3Ubhk7O8ijNcy6eWE40mHOZ93JUWm/k0fa5MQPXhlsS8a3ZdpsI5/ZnO8M7z3SEurQAmzvtbYmnVbObGJL2+LJ7qgH74gh+s339TtXHkzoV4mUNdUrTSjFaVB4U7A8I/0BvdGKLhJEV/tE6loggmoCJmyBVcs+MK2Ntaw+LX+lOYMVpcRkFdvOqk3o8wJyZpF3HwdZyszJe/EQL2zbUrf/xA0hE6glaVecvKg4mgYjljiQmosRxUK197+w4gFn5Ybz8qnHxyzw7KVS8fJ+VqLkxSCXGN+OaKRDq3fHawdrv66DBiEMEypRABRaEcSBZJe6PyqTb9c59ehW0fafepJOX9mYBK4ZIeeUrKOPfVDs2tVUo52KneqyTquDEXJmnFrkxqt6kbcZTA94onootpS49eKiJqdY0plulCYqkgnLwwvv6EFwwhQouQD3TOgH7mDSUmoCLOyYFJcnZoRmvMK+LcIfLV5xdV8kG9rubCJBWTDXkk1JZXp4gzeYA/BNvtjcqjyer7naiwfCWlDP4lSNDXHjd875cJqIj7cmCSUJkefXKikYbCkipwduBWsftPp4qeJD1oLkzS7PG+MH20p0pD1/57E7BnfW+cD0xQDPv8idJ/pLecTrDwPB2+xHkGcbI1TsSMK823hl1VOPDauC4wbfFeePHDCJg1oRtcIy5p0C2iIWQuTJIzWZ3jT0zuLhwADoFwvq24kWJUT1dYuC4VDp4vgClfxcJwcnKEG/VojhG3mbAnNYZUW2BMTQ2grFyYpKeHtgE0wfj5r6dpT4qsQSsj6D9eAVcyG7ekYpI0NbAR9VEHKralcJ9z47xQmPFdPAHL5dEflkW/8yvfbgvGojqZwrLoS8iNScIN+xSyog8i3uZsrLVv04iacM+CcmOScDWflVcFiE1Cd4qtWxi2KFRnABNQBUcYJkldNCzjng3xiu/AMEmWIZDqrfh/p8WoFopk514AAAAASUVORK5CYII=;" vertex="1" parent="1">
          <mxGeometry x="-560" y="200" width="56" height="80" as="geometry" />
        </mxCell>
        <mxCell id="tymc0VPoWdGVmAMWYBGD-11" style="edgeStyle=orthogonalEdgeStyle;rounded=0;orthogonalLoop=1;jettySize=auto;html=1;entryX=-0.032;entryY=0.623;entryDx=0;entryDy=0;entryPerimeter=0;" edge="1" parent="1" source="tymc0VPoWdGVmAMWYBGD-8" target="tymc0VPoWdGVmAMWYBGD-10">
          <mxGeometry relative="1" as="geometry" />
        </mxCell>
      </root>
    </mxGraphModel>
  </diagram>
</mxfile>
